<svg viewBox="0 0 450 96" xmlns="http://www.w3.org/2000/svg" role="img" aria-label="Budgetoid" color="#0E5B43">
  <defs>
    <mask id="halol" maskUnits="userSpaceOnUse" x="0" y="0" width="96" height="96">
      <rect width="96" height="96" fill="#fff"/>
      <polyline points="0,64 32,64 64,32 96,32" fill="none" stroke="#000" stroke-width="9.5"/>
      <circle cx="48" cy="48" r="17" fill="#000"/>
    </mask>
  </defs>
  <!-- Primary lockup: Halo Seam mark + "budgetoid" in SF Pro Rounded Bold,
       outlined to paths (no font file shipped). Recolor via CSS `color`. -->
  <circle cx="48" cy="48" r="32" fill="currentColor" mask="url(#halol)"/>
  <circle cx="48" cy="48" r="8.5" fill="currentColor"/>
  <path fill="currentColor" d="M139.1 65.7C142 65.7 143.9 64 143.9 60.8V58.9H144.1C146.1 63 150.1 65.6 155.3 65.6C164.3 65.6 169.7 58.7 169.7 47.2C169.7 35.7 164.3 28.8 155.3 28.8C150.2 28.8 146.2 31.4 144.3 35.6H144.1V21.4C144.1 18.1 142.1 16.4 139.2 16.4C136.4 16.4 134.4 18.1 134.4 21.4V60.8C134.4 64 136.3 65.7 139.1 65.7ZM152 57.8C147.3 57.8 144 53.6 144 47.2C144 40.8 147.3 36.6 152 36.6C156.8 36.6 159.8 40.7 159.8 47.2C159.8 53.7 156.8 57.8 152 57.8Z M187.4 65.7C192.8 65.7 196.3 63.1 198.1 58.6H198.3V60.8C198.3 64 200.2 65.7 203 65.7C205.7 65.7 207.6 64 207.6 60.8V33.8C207.6 30.4 205.6 28.7 202.8 28.7C200 28.7 197.9 30.4 197.9 33.8V49.8C197.9 54.5 195.2 57.6 190.9 57.6C186.6 57.6 184.3 55.1 184.3 50.3V33.8C184.3 30.4 182.3 28.7 179.4 28.7C176.6 28.7 174.6 30.4 174.6 33.8V52.3C174.6 60.7 179.7 65.7 187.4 65.7Z M227.2 65.6C232.6 65.6 236.6 62.7 238.1 58.7H238.3V60.8C238.3 64 240.4 65.7 243.2 65.7C246 65.7 248 64 248 60.8V21.4C248 18.1 246 16.4 243.1 16.4C240.3 16.4 238.3 18.1 238.3 21.4V35.5H238.1C236.4 31.6 232.4 28.8 227.2 28.8C218.3 28.8 212.6 35.8 212.6 47.1C212.6 58.5 218.3 65.6 227.2 65.6ZM230.4 57.8C225.6 57.8 222.6 53.7 222.6 47.2C222.6 40.7 225.6 36.6 230.4 36.6C235.3 36.6 238.3 40.7 238.3 47.2C238.3 53.7 235.3 57.8 230.4 57.8Z M270.4 78.4C281.8 78.4 288.5 72.9 288.5 63.6V33.6C288.5 30.3 286.5 28.7 283.7 28.7C280.9 28.7 278.8 30.3 278.8 33.6V35.5H278.6C276.8 31.5 272.9 28.8 267.8 28.8C258.6 28.8 253.2 35.4 253.2 46.6C253.2 57.5 258.7 64.2 267.6 64.2C272.7 64.2 276.9 61.7 278.6 57.9H278.8V63.5C278.8 68 275.6 70.9 270.3 70.9C267.1 70.8 264.6 69.5 262 67C260.9 66 259.9 65.6 258.6 65.6C256.2 65.6 254.6 67.1 254.6 69.2C254.6 70 254.8 70.9 255.4 71.8C257.7 75.6 263.1 78.3 270.4 78.4ZM270.9 57C266.1 57 263.1 53.2 263.1 46.7C263.1 40.3 266.1 36.2 270.9 36.2C275.7 36.2 278.9 40.3 278.9 46.7C278.9 53.2 275.7 57 270.9 57Z M311.2 65.8C318 65.8 323.5 63.2 325.9 58.8C326.3 58 326.6 57.2 326.6 56.4C326.6 54.2 324.9 52.9 322.8 52.9C321.5 52.9 320.7 53.2 319.6 54.3C317 57.4 314.7 58.6 311.1 58.6C306.2 58.6 303 55.1 303 49.9V49.4H323.3C326 49.4 327.6 47.9 327.6 45.2C327.6 35.5 320.8 28.6 310.7 28.6C300.2 28.6 293.5 35.9 293.5 47.4C293.5 58.9 300 65.8 311.2 65.8ZM303.1 43.5C303.5 38.9 306.5 35.8 310.8 35.8C315 35.8 318 38.8 318.2 43.5Z M335.1 55.9C335.1 62.2 338.4 65.4 344.9 65.4H345.2C349.3 65.4 352.1 63.9 352.1 61.1C352.1 58.8 350.8 57.8 348.4 57.6L347.8 57.5C345.7 57.3 344.8 56.3 344.8 53.7V36.7H348.2C350.5 36.7 352 35.3 352 33.1C352 30.8 350.5 29.4 348.2 29.4H344.8V25.5C344.8 22.3 343 20.4 340 20.4C337 20.4 335.1 22.3 335.1 25.5V29.4H333.3C331 29.4 329.5 30.8 329.5 33.1C329.5 35.3 331 36.7 333.3 36.7H335.1Z M372.6 65.8C383.3 65.8 390.2 58.9 390.2 47.2C390.2 35.6 383.2 28.6 372.6 28.6C361.9 28.6 354.9 35.6 354.9 47.2C354.9 58.9 361.8 65.8 372.6 65.8ZM372.6 58.4C367.8 58.4 364.8 54.3 364.8 47.2C364.8 40.1 367.8 36 372.6 36C377.3 36 380.3 40.1 380.3 47.2C380.3 54.3 377.3 58.4 372.6 58.4Z M400.2 25C403.1 25 405.4 22.8 405.4 20C405.4 17.2 403.1 15 400.2 15C397.3 15 395 17.2 395 20C395 22.8 397.3 25 400.2 25ZM400.2 65.7C403.2 65.7 405 63.8 405 60.7V33.8C405 30.6 403.2 28.7 400.2 28.7C397.2 28.7 395.3 30.6 395.3 33.8V60.7C395.3 63.8 397.2 65.7 400.2 65.7Z M424.7 65.6C430.2 65.6 434.1 62.7 435.6 58.7H435.8V60.8C435.8 64 437.9 65.7 440.7 65.7C443.5 65.7 445.5 64 445.5 60.8V21.4C445.5 18.1 443.5 16.4 440.7 16.4C437.8 16.4 435.8 18.1 435.8 21.4V35.5H435.6C433.9 31.6 429.9 28.8 424.7 28.8C415.8 28.8 410.2 35.8 410.2 47.1C410.2 58.5 415.8 65.6 424.7 65.6ZM428 57.8C423.1 57.8 420.1 53.7 420.1 47.2C420.1 40.7 423.1 36.6 428 36.6C432.8 36.6 435.9 40.7 435.9 47.2C435.9 53.7 432.8 57.8 428 57.8Z"/>
</svg>
